# xmcd CD database file generated by OrangeCD 5.2
#
# Track frame offsets:
#	150
#	12636
#	26504
#	38315
#	48754
#	61150
#	73666
#	84956
#	96864
#	110844
#	124388
#	137473
#	149815
#	160938
#	173654
#	183830
#	198613
#	214401
#	227187
#	241345
#
# Disc length: 3408 seconds
#
# Revision: 0
# Processed by: cddbd v1.5.1PL0 Copyright (c) Steve Scherf et al.
# Submitted via: OrangeCD 5.2
#
DISCID=1b0d4e14
DTITLE=Elmore James - Person To Person
DYEAR=2004
DGENRE=
TTITLE0=Dust My Broom (I Believe My Time Ain't Long)
TTITLE1=It Hurts Me Too
TTITLE2=Knocking At Your Door
TTITLE3=Elmore's Contribution To Jazz
TTITLE4=Cry For Me Baby
TTITLE5=The Sky Is Crying
TTITLE6=Rollin' And Tumblin'
TTITLE7=I Can't Stop Lovin' You
TTITLE8=Strange Angels
TTITLE9=Standing At The Crossroads
TTITLE10=My Kind Of Woman
TTITLE11=Got To Move
TTITLE12=Person To Person
TTITLE13=Shake Your Moneymaker
TTITLE14=Sunnyland Trains
TTITLE15=Pickin' The Blues (Manhattan Slide)
TTITLE16=Twelve Year Old Boy
TTITLE17=Talk To Me Baby
TTITLE18=Elmore Jumps One (Up Jumped Elmore)
TTITLE19=Hand In Hand (Take 3)
EXTD=
EXTT0=
EXTT1=
EXTT2=
EXTT3=
EXTT4=
EXTT5=
EXTT6=
EXTT7=
EXTT8=
EXTT9=
EXTT10=
EXTT11=
EXTT12=
EXTT13=
EXTT14=
EXTT15=
EXTT16=
EXTT17=
EXTT18=
EXTT19=
PLAYORDER=
